<?xml version="1.0" encoding="UTF-8"?>
<!DOCTYPE svg  PUBLIC '-//W3C//DTD SVG 1.1//EN'  'http://www.w3.org/Graphics/SVG/1.1/DTD/svg11.dtd'>
<svg width="460.8pt" height="345.6pt" version="1.1" viewBox="0 0 460.8 345.6" xmlns="http://www.w3.org/2000/svg" xmlns:xlink="http://www.w3.org/1999/xlink">
 <defs>
  <style type="text/css">*{stroke-linejoin: round; stroke-linecap: butt}</style>
 </defs>
 <g id="figure_1">
  <g id="patch_1">
   <path d="m0 345.6h460.8v-345.6h-460.8z" fill="#fff"/>
  </g>
  <g id="axes_1">
   <g id="patch_2">
    <path d="m92.078 307.58h288.16v-266.11h-288.16z" fill="#fff"/>
   </g>
   <g id="PathCollection_1">
    <defs>
     <path id="m2158bbb9fa" d="m0 3c0.79561 0 1.5587-0.3161 2.1213-0.87868 0.56258-0.56258 0.87868-1.3257 0.87868-2.1213s-0.3161-1.5587-0.87868-2.1213c-0.56258-0.56258-1.3257-0.87868-2.1213-0.87868s-1.5587 0.3161-2.1213 0.87868c-0.56258 0.56258-0.87868 1.3257-0.87868 2.1213s0.3161 1.5587 0.87868 2.1213c0.56258 0.56258 1.3257 0.87868 2.1213 0.87868z" stroke="#1f77b4"/>
    </defs>
    <g clip-path="url(#p873fd52cac)" fill="#1f77b4" stroke="#1f77b4">
     <use x="631.731068" y="414.0288" xlink:href="#m2158bbb9fa"/>
     <use x="605.534309" y="411.072" xlink:href="#m2158bbb9fa"/>
     <use x="595.055605" y="411.072" xlink:href="#m2158bbb9fa"/>
     <use x="558.380142" y="408.1152" xlink:href="#m2158bbb9fa"/>
     <use x="526.94403" y="405.1584" xlink:href="#m2158bbb9fa"/>
     <use x="490.268567" y="402.2016" xlink:href="#m2158bbb9fa"/>
     <use x="487.648891" y="402.2016" xlink:href="#m2158bbb9fa"/>
     <use x="443.1144" y="393.3312" xlink:href="#m2158bbb9fa"/>
     <use x="414.297965" y="387.4176" xlink:href="#m2158bbb9fa"/>
     <use x="382.861853" y="378.5472" xlink:href="#m2158bbb9fa"/>
     <use x="369.763473" y="369.6768" xlink:href="#m2158bbb9fa"/>
     <use x="351.425742" y="366.72" xlink:href="#m2158bbb9fa"/>
     <use x="312.130603" y="346.0224" xlink:href="#m2158bbb9fa"/>
     <use x="293.792871" y="334.1952" xlink:href="#m2158bbb9fa"/>
     <use x="280.694491" y="310.5408" xlink:href="#m2158bbb9fa"/>
     <use x="280.694491" y="304.6272" xlink:href="#m2158bbb9fa"/>
     <use x="270.215787" y="272.1024" xlink:href="#m2158bbb9fa"/>
     <use x="257.117408" y="239.5776" xlink:href="#m2158bbb9fa"/>
     <use x="254.497732" y="233.664" xlink:href="#m2158bbb9fa"/>
     <use x="251.878056" y="218.88" xlink:href="#m2158bbb9fa"/>
     <use x="254.497732" y="204.096" xlink:href="#m2158bbb9fa"/>
     <use x="259.737084" y="192.2688" xlink:href="#m2158bbb9fa"/>
     <use x="264.976435" y="177.4848" xlink:href="#m2158bbb9fa"/>
     <use x="272.835463" y="159.744" xlink:href="#m2158bbb9fa"/>
     <use x="278.074815" y="144.96" xlink:href="#m2158bbb9fa"/>
     <use x="285.933843" y="130.176" xlink:href="#m2158bbb9fa"/>
     <use x="285.933843" y="118.3488" xlink:href="#m2158bbb9fa"/>
     <use x="285.933843" y="109.4784" xlink:href="#m2158bbb9fa"/>
     <use x="288.553519" y="103.5648" xlink:href="#m2158bbb9fa"/>
     <use x="283.314167" y="97.6512" xlink:href="#m2158bbb9fa"/>
     <use x="283.314167" y="94.6944" xlink:href="#m2158bbb9fa"/>
     <use x="275.455139" y="91.7376" xlink:href="#m2158bbb9fa"/>
     <use x="272.835463" y="91.7376" xlink:href="#m2158bbb9fa"/>
     <use x="270.215787" y="91.7376" xlink:href="#m2158bbb9fa"/>
     <use x="251.878056" y="85.824" xlink:href="#m2158bbb9fa"/>
     <use x="238.779676" y="82.8672" xlink:href="#m2158bbb9fa"/>
     <use x="223.06162" y="76.9536" xlink:href="#m2158bbb9fa"/>
     <use x="202.104213" y="79.9104" xlink:href="#m2158bbb9fa"/>
     <use x="178.527129" y="76.9536" xlink:href="#m2158bbb9fa"/>
     <use x="178.527129" y="76.9536" xlink:href="#m2158bbb9fa"/>
     <use x="165.428749" y="71.04" xlink:href="#m2158bbb9fa"/>
     <use x="147.091018" y="56.256" xlink:href="#m2158bbb9fa"/>
     <use x="126.13361" y="47.3856" xlink:href="#m2158bbb9fa"/>
     <use x="99.936851" y="38.5152" xlink:href="#m2158bbb9fa"/>
     <use x="81.599119" y="17.8176" xlink:href="#m2158bbb9fa"/>
     <use x="47.543332" y="26.688" xlink:href="#m2158bbb9fa"/>
     <use x="39.684304" y="32.6016" xlink:href="#m2158bbb9fa"/>
     <use x="42.30398" y="26.688" xlink:href="#m2158bbb9fa"/>
     <use x="55.40236" y="11.904" xlink:href="#m2158bbb9fa"/>
     <use x="65.881063" y="0.0768" xlink:href="#m2158bbb9fa"/>
     <use x="67.153099" y="-1" xlink:href="#m2158bbb9fa"/>
    </g>
   </g>
   <g id="matplotlib.axis_1">
    <g id="xtick_1">
     <g id="line2d_1">
      <defs>
       <path id="m5fb1cea4b9" d="m0 0v3.5" stroke="#000" stroke-width=".8"/>
      </defs>
      <use x="92.077823" y="307.584" stroke="#000000" stroke-width=".8" xlink:href="#m5fb1cea4b9"/>
     </g>
     <g id="text_1">
      <!-- −88 -->
      <g transform="translate(81.525 322.18) scale(.1 -.1)">
       <defs>
        <path id="DejaVuSans-2212" transform="scale(.015625)" d="m678 2272h4006v-531h-4006v531z"/>
        <path id="DejaVuSans-38" transform="scale(.015625)" d="m2034 2216q-450 0-708-241-257-241-257-662 0-422 257-663 258-241 708-241t709 242q260 243 260 662 0 421-258 662-257 241-711 241zm-631 268q-406 100-633 378-226 279-226 679 0 559 398 884 399 325 1092 325 697 0 1094-325t397-884q0-400-227-679-226-278-629-378 456-106 710-416 255-309 255-755 0-679-414-1042-414-362-1186-362-771 0-1186 362-414 363-414 1042 0 446 256 755 257 310 713 416zm-231 997q0-362 226-565 227-203 636-203 407 0 636 203 230 203 230 565 0 363-230 566-229 203-636 203-409 0-636-203-226-203-226-566z"/>
       </defs>
       <use xlink:href="#DejaVuSans-2212"/>
       <use x="83.789062" xlink:href="#DejaVuSans-38"/>
       <use x="147.412109" xlink:href="#DejaVuSans-38"/>
      </g>
     </g>
    </g>
    <g id="xtick_2">
     <g id="line2d_2">
      <use x="144.471342" y="307.584" stroke="#000000" stroke-width=".8" xlink:href="#m5fb1cea4b9"/>
     </g>
     <g id="text_2">
      <!-- −86 -->
      <g transform="translate(133.92 322.18) scale(.1 -.1)">
       <defs>
        <path id="DejaVuSans-36" transform="scale(.015625)" d="m2113 2584q-425 0-674-291-248-290-248-796 0-503 248-796 249-292 674-292t673 292q248 293 248 796 0 506-248 796-248 291-673 291zm1253 1979v-575q-238 112-480 171-242 60-480 60-625 0-955-422-329-422-376-1275 184 272 462 417 279 145 613 145 703 0 1111-427 408-426 408-1160 0-719-425-1154-425-434-1131-434-810 0-1238 620-428 621-428 1799 0 1106 525 1764t1409 658q238 0 480-47t505-140z"/>
       </defs>
       <use xlink:href="#DejaVuSans-2212"/>
       <use x="83.789062" xlink:href="#DejaVuSans-38"/>
       <use x="147.412109" xlink:href="#DejaVuSans-36"/>
      </g>
     </g>
    </g>
    <g id="xtick_3">
     <g id="line2d_3">
      <use x="196.864861" y="307.584" stroke="#000000" stroke-width=".8" xlink:href="#m5fb1cea4b9"/>
     </g>
     <g id="text_3">
      <!-- −84 -->
      <g transform="translate(186.31 322.18) scale(.1 -.1)">
       <defs>
        <path id="DejaVuSans-34" transform="scale(.015625)" d="m2419 4116-1594-2491h1594v2491zm-166 550h794v-3041h666v-525h-666v-1100h-628v1100h-2106v609l1940 2957z"/>
       </defs>
       <use xlink:href="#DejaVuSans-2212"/>
       <use x="83.789062" xlink:href="#DejaVuSans-38"/>
       <use x="147.412109" xlink:href="#DejaVuSans-34"/>
      </g>
     </g>
    </g>
    <g id="xtick_4">
     <g id="line2d_4">
      <use x="249.25838" y="307.584" stroke="#000000" stroke-width=".8" xlink:href="#m5fb1cea4b9"/>
     </g>
     <g id="text_4">
      <!-- −82 -->
      <g transform="translate(238.71 322.18) scale(.1 -.1)">
       <defs>
        <path id="DejaVuSans-32" transform="scale(.015625)" d="m1228 531h2203v-531h-2962v531q359 372 979 998 621 627 780 809 303 340 423 576 121 236 121 464 0 372-261 606-261 235-680 235-297 0-627-103-329-103-704-313v638q381 153 712 231 332 78 607 78 725 0 1156-363 431-362 431-968 0-288-108-546-107-257-392-607-78-91-497-524-418-433-1181-1211z"/>
       </defs>
       <use xlink:href="#DejaVuSans-2212"/>
       <use x="83.789062" xlink:href="#DejaVuSans-38"/>
       <use x="147.412109" xlink:href="#DejaVuSans-32"/>
      </g>
     </g>
    </g>
    <g id="xtick_5">
     <g id="line2d_5">
      <use x="301.651899" y="307.584" stroke="#000000" stroke-width=".8" xlink:href="#m5fb1cea4b9"/>
     </g>
     <g id="text_5">
      <!-- −80 -->
      <g transform="translate(291.1 322.18) scale(.1 -.1)">
       <defs>
        <path id="DejaVuSans-30" transform="scale(.015625)" d="m2034 4250q-487 0-733-480-245-479-245-1442 0-959 245-1439 246-480 733-480 491 0 736 480 246 480 246 1439 0 963-246 1442-245 480-736 480zm0 500q785 0 1199-621 414-620 414-1801 0-1178-414-1799-414-620-1199-620-784 0-1198 620-414 621-414 1799 0 1181 414 1801 414 621 1198 621z"/>
       </defs>
       <use xlink:href="#DejaVuSans-2212"/>
       <use x="83.789062" xlink:href="#DejaVuSans-38"/>
       <use x="147.412109" xlink:href="#DejaVuSans-30"/>
      </g>
     </g>
    </g>
    <g id="xtick_6">
     <g id="line2d_6">
      <use x="354.045418" y="307.584" stroke="#000000" stroke-width=".8" xlink:href="#m5fb1cea4b9"/>
     </g>
     <g id="text_6">
      <!-- −78 -->
      <g transform="translate(343.49 322.18) scale(.1 -.1)">
       <defs>
        <path id="DejaVuSans-37" transform="scale(.015625)" d="m525 4666h3e3v-269l-1694-4397h-659l1594 4134h-2241v532z"/>
       </defs>
       <use xlink:href="#DejaVuSans-2212"/>
       <use x="83.789062" xlink:href="#DejaVuSans-37"/>
       <use x="147.412109" xlink:href="#DejaVuSans-38"/>
      </g>
     </g>
    </g>
    <g id="text_7">
     <!-- Longitude -->
     <g transform="translate(211.29 335.86) scale(.1 -.1)">
      <defs>
       <path id="DejaVuSans-4c" transform="scale(.015625)" d="m628 4666h631v-4135h2272v-531h-2903v4666z"/>
       <path id="DejaVuSans-6f" transform="scale(.015625)" d="m1959 3097q-462 0-731-361t-269-989 267-989q268-361 733-361 460 0 728 362 269 363 269 988 0 622-269 986-268 364-728 364zm0 487q750 0 1178-488 429-487 429-1349 0-859-429-1349-428-489-1178-489-753 0-1180 489-426 490-426 1349 0 862 426 1349 427 488 1180 488z"/>
       <path id="DejaVuSans-6e" transform="scale(.015625)" d="m3513 2113v-2113h-575v2094q0 497-194 743-194 247-581 247-466 0-735-297-269-296-269-809v-1978h-578v3500h578v-544q207 316 486 472 280 156 646 156 603 0 912-373 310-373 310-1098z"/>
       <path id="DejaVuSans-67" transform="scale(.015625)" d="m2906 1791q0 625-258 968-257 344-723 344-462 0-720-344-258-343-258-968 0-622 258-966t720-344q466 0 723 344 258 344 258 966zm575-1357q0-893-397-1329-396-436-1215-436-303 0-572 45t-522 139v559q253-137 500-202 247-66 503-66 566 0 847 295t281 892v285q-178-310-456-463t-666-153q-643 0-1037 490-394 491-394 1301 0 812 394 1302 394 491 1037 491 388 0 666-153t456-462v531h575v-3066z"/>
       <path id="DejaVuSans-69" transform="scale(.015625)" d="m603 3500h575v-3500h-575v3500zm0 1363h575v-729h-575v729z"/>
       <path id="DejaVuSans-74" transform="scale(.015625)" d="m1172 4494v-994h1184v-447h-1184v-1900q0-428 117-550t477-122h590v-481h-590q-666 0-919 248-253 249-253 905v1900h-422v447h422v994h578z"/>
       <path id="DejaVuSans-75" transform="scale(.015625)" d="m544 1381v2119h575v-2097q0-497 193-746 194-248 582-248 465 0 735 297 271 297 271 810v1984h575v-3500h-575v538q-209-319-486-474-276-155-642-155-603 0-916 375-312 375-312 1097zm1447 2203z"/>
       <path id="DejaVuSans-64" transform="scale(.015625)" d="m2906 2969v1894h575v-4863h-575v525q-181-312-458-464-276-152-664-152-634 0-1033 506-398 507-398 1332t398 1331q399 506 1033 506 388 0 664-152 277-151 458-463zm-1959-1222q0-634 261-995t717-361 718 361q263 361 263 995t-263 995q-262 361-718 361t-717-361-261-995z"/>
       <path id="DejaVuSans-65" transform="scale(.015625)" d="m3597 1894v-281h-2644q38-594 358-905t892-311q331 0 642 81t618 244v-544q-310-131-635-200t-659-69q-838 0-1327 487-489 488-489 1320 0 859 464 1363 464 505 1252 505 706 0 1117-455 411-454 411-1235zm-575 169q-6 471-264 752-258 282-683 282-481 0-770-272t-333-766l2050 4z"/>
      </defs>
      <use xlink:href="#DejaVuSans-4c"/>
      <use x="53.962891" xlink:href="#DejaVuSans-6f"/>
      <use x="115.144531" xlink:href="#DejaVuSans-6e"/>
      <use x="178.523438" xlink:href="#DejaVuSans-67"/>
      <use x="242" xlink:href="#DejaVuSans-69"/>
      <use x="269.783203" xlink:href="#DejaVuSans-74"/>
      <use x="308.992188" xlink:href="#DejaVuSans-75"/>
      <use x="372.371094" xlink:href="#DejaVuSans-64"/>
      <use x="435.847656" xlink:href="#DejaVuSans-65"/>
     </g>
    </g>
   </g>
   <g id="matplotlib.axis_2">
    <g id="ytick_1">
     <g id="line2d_7">
      <defs>
       <path id="m9dac8ab3fb" d="m0 0h-3.5" stroke="#000" stroke-width=".8"/>
      </defs>
      <use x="92.077823" y="307.584" stroke="#000000" stroke-width=".8" xlink:href="#m9dac8ab3fb"/>
     </g>
     <g id="text_8">
      <!-- 22 -->
      <g transform="translate(72.353 311.38) scale(.1 -.1)">
       <use xlink:href="#DejaVuSans-32"/>
       <use x="63.623047" xlink:href="#DejaVuSans-32"/>
      </g>
     </g>
    </g>
    <g id="ytick_2">
     <g id="line2d_8">
      <use x="92.077823" y="278.016" stroke="#000000" stroke-width=".8" xlink:href="#m9dac8ab3fb"/>
     </g>
     <g id="text_9">
      <!-- 23 -->
      <g transform="translate(72.353 281.82) scale(.1 -.1)">
       <defs>
        <path id="DejaVuSans-33" transform="scale(.015625)" d="m2597 2516q453-97 707-404 255-306 255-756 0-690-475-1069-475-378-1350-378-293 0-604 58t-642 174v609q262-153 574-231 313-78 654-78 593 0 904 234t311 681q0 413-289 645-289 233-804 233h-544v519h569q465 0 712 186t247 536q0 359-255 551-254 193-729 193-260 0-557-57-297-56-653-174v562q360 100 674 150t592 50q719 0 1137-327 419-326 419-882 0-388-222-655t-631-370z"/>
       </defs>
       <use xlink:href="#DejaVuSans-32"/>
       <use x="63.623047" xlink:href="#DejaVuSans-33"/>
      </g>
     </g>
    </g>
    <g id="ytick_3">
     <g id="line2d_9">
      <use x="92.077823" y="248.448" stroke="#000000" stroke-width=".8" xlink:href="#m9dac8ab3fb"/>
     </g>
     <g id="text_10">
      <!-- 24 -->
      <g transform="translate(72.353 252.25) scale(.1 -.1)">
       <use xlink:href="#DejaVuSans-32"/>
       <use x="63.623047" xlink:href="#DejaVuSans-34"/>
      </g>
     </g>
    </g>
    <g id="ytick_4">
     <g id="line2d_10">
      <use x="92.077823" y="218.88" stroke="#000000" stroke-width=".8" xlink:href="#m9dac8ab3fb"/>
     </g>
     <g id="text_11">
      <!-- 25 -->
      <g transform="translate(72.353 222.68) scale(.1 -.1)">
       <defs>
        <path id="DejaVuSans-35" transform="scale(.015625)" d="m691 4666h2478v-532h-1900v-1143q137 47 274 70 138 23 276 23 781 0 1237-428 457-428 457-1159 0-753-469-1171-469-417-1322-417-294 0-599 50-304 50-629 150v635q281-153 581-228t634-75q541 0 856 284 316 284 316 772 0 487-316 771-315 285-856 285-253 0-505-56-251-56-513-175v2344z"/>
       </defs>
       <use xlink:href="#DejaVuSans-32"/>
       <use x="63.623047" xlink:href="#DejaVuSans-35"/>
      </g>
     </g>
    </g>
    <g id="ytick_5">
     <g id="line2d_11">
      <use x="92.077823" y="189.312" stroke="#000000" stroke-width=".8" xlink:href="#m9dac8ab3fb"/>
     </g>
     <g id="text_12">
      <!-- 26 -->
      <g transform="translate(72.353 193.11) scale(.1 -.1)">
       <use xlink:href="#DejaVuSans-32"/>
       <use x="63.623047" xlink:href="#DejaVuSans-36"/>
      </g>
     </g>
    </g>
    <g id="ytick_6">
     <g id="line2d_12">
      <use x="92.077823" y="159.744" stroke="#000000" stroke-width=".8" xlink:href="#m9dac8ab3fb"/>
     </g>
     <g id="text_13">
      <!-- 27 -->
      <g transform="translate(72.353 163.54) scale(.1 -.1)">
       <use xlink:href="#DejaVuSans-32"/>
       <use x="63.623047" xlink:href="#DejaVuSans-37"/>
      </g>
     </g>
    </g>
    <g id="ytick_7">
     <g id="line2d_13">
      <use x="92.077823" y="130.176" stroke="#000000" stroke-width=".8" xlink:href="#m9dac8ab3fb"/>
     </g>
     <g id="text_14">
      <!-- 28 -->
      <g transform="translate(72.353 133.98) scale(.1 -.1)">
       <use xlink:href="#DejaVuSans-32"/>
       <use x="63.623047" xlink:href="#DejaVuSans-38"/>
      </g>
     </g>
    </g>
    <g id="ytick_8">
     <g id="line2d_14">
      <use x="92.077823" y="100.608" stroke="#000000" stroke-width=".8" xlink:href="#m9dac8ab3fb"/>
     </g>
     <g id="text_15">
      <!-- 29 -->
      <g transform="translate(72.353 104.41) scale(.1 -.1)">
       <defs>
        <path id="DejaVuSans-39" transform="scale(.015625)" d="m703 97v575q238-113 481-172 244-59 479-59 625 0 954 420 330 420 377 1277-181-269-460-413-278-144-615-144-700 0-1108 423-408 424-408 1159 0 718 425 1152 425 435 1131 435 810 0 1236-621 427-620 427-1801 0-1103-524-1761-523-658-1407-658-238 0-482 47-243 47-506 141zm1256 1978q425 0 673 290 249 291 249 798 0 503-249 795-248 292-673 292t-673-292-248-795q0-507 248-798 248-290 673-290z"/>
       </defs>
       <use xlink:href="#DejaVuSans-32"/>
       <use x="63.623047" xlink:href="#DejaVuSans-39"/>
      </g>
     </g>
    </g>
    <g id="ytick_9">
     <g id="line2d_15">
      <use x="92.077823" y="71.04" stroke="#000000" stroke-width=".8" xlink:href="#m9dac8ab3fb"/>
     </g>
     <g id="text_16">
      <!-- 30 -->
      <g transform="translate(72.353 74.839) scale(.1 -.1)">
       <use xlink:href="#DejaVuSans-33"/>
       <use x="63.623047" xlink:href="#DejaVuSans-30"/>
      </g>
     </g>
    </g>
    <g id="ytick_10">
     <g id="line2d_16">
      <use x="92.077823" y="41.472" stroke="#000000" stroke-width=".8" xlink:href="#m9dac8ab3fb"/>
     </g>
     <g id="text_17">
      <!-- 31 -->
      <g transform="translate(72.353 45.271) scale(.1 -.1)">
       <defs>
        <path id="DejaVuSans-31" transform="scale(.015625)" d="m794 531h1031v3560l-1122-225v575l1116 225h631v-4135h1031v-531h-2687v531z"/>
       </defs>
       <use xlink:href="#DejaVuSans-33"/>
       <use x="63.623047" xlink:href="#DejaVuSans-31"/>
      </g>
     </g>
    </g>
    <g id="text_18">
     <!-- Latitude -->
     <g transform="translate(66.273 195.11) rotate(-90) scale(.1 -.1)">
      <defs>
       <path id="DejaVuSans-61" transform="scale(.015625)" d="m2194 1759q-697 0-966-159t-269-544q0-306 202-486 202-179 548-179 479 0 768 339t289 901v128h-572zm1147 238v-1997h-575v531q-197-318-491-470t-719-152q-537 0-855 302-317 302-317 808 0 590 395 890 396 300 1180 300h807v57q0 397-261 614t-733 217q-300 0-585-72-284-72-546-216v532q315 122 612 182 297 61 578 61 760 0 1135-394 375-393 375-1193z"/>
      </defs>
      <use xlink:href="#DejaVuSans-4c"/>
      <use x="55.712891" xlink:href="#DejaVuSans-61"/>
      <use x="116.992188" xlink:href="#DejaVuSans-74"/>
      <use x="156.201172" xlink:href="#DejaVuSans-69"/>
      <use x="183.984375" xlink:href="#DejaVuSans-74"/>
      <use x="223.193359" xlink:href="#DejaVuSans-75"/>
      <use x="286.572266" xlink:href="#DejaVuSans-64"/>
      <use x="350.048828" xlink:href="#DejaVuSans-65"/>
     </g>
    </g>
   </g>
   <g id="LineCollection_1" fill="none" stroke="#1f77b4" stroke-width="1.5">
    <path d="m312.13 346.02 1.0966 0.5776" clip-path="url(#p873fd52cac)"/>
    <path d="m293.79 334.2 18.338 11.827" clip-path="url(#p873fd52cac)"/>
    <path d="m280.69 310.54 13.098 23.654" clip-path="url(#p873fd52cac)"/>
    <path d="m280.69 310.54v-5.9136" clip-path="url(#p873fd52cac)"/>
    <path d="m270.22 272.1 10.479 32.525" clip-path="url(#p873fd52cac)"/>
    <path d="m257.12 239.58 13.098 32.525" clip-path="url(#p873fd52cac)"/>
    <path d="m254.5 233.66 2.6197 5.9136" clip-path="url(#p873fd52cac)"/>
    <path d="m251.88 218.88 2.6197 14.784" clip-path="url(#p873fd52cac)"/>
    <path d="m251.88 218.88 2.6197-14.784" clip-path="url(#p873fd52cac)"/>
    <path d="m254.5 204.1 5.2394-11.827" clip-path="url(#p873fd52cac)"/>
    <path d="m259.74 192.27 5.2394-14.784" clip-path="url(#p873fd52cac)"/>
    <path d="m264.98 177.48 7.859-17.741" clip-path="url(#p873fd52cac)"/>
    <path d="m272.84 159.74 5.2394-14.784" clip-path="url(#p873fd52cac)"/>
    <path d="m278.07 144.96 7.859-14.784" clip-path="url(#p873fd52cac)"/>
    <path d="m285.93 130.18v-11.827" clip-path="url(#p873fd52cac)"/>
    <path d="m285.93 118.35v-8.8704" clip-path="url(#p873fd52cac)"/>
    <path d="m285.93 109.48 2.6197-5.9136" clip-path="url(#p873fd52cac)"/>
    <path d="m283.31 97.651 5.2394 5.9136" clip-path="url(#p873fd52cac)"/>
    <path d="m283.31 97.651v-2.9568" clip-path="url(#p873fd52cac)"/>
    <path d="m275.46 91.738 7.859 2.9568" clip-path="url(#p873fd52cac)"/>
    <path d="m272.84 91.738h2.6197" clip-path="url(#p873fd52cac)"/>
    <path d="m270.22 91.738h2.6197" clip-path="url(#p873fd52cac)"/>
    <path d="m251.88 85.824 18.338 5.9136" clip-path="url(#p873fd52cac)"/>
    <path d="m238.78 82.867 13.098 2.9568" clip-path="url(#p873fd52cac)"/>
    <path d="m223.06 76.954 15.718 5.9136" clip-path="url(#p873fd52cac)"/>
    <path d="m202.1 79.91 20.957-2.9568" clip-path="url(#p873fd52cac)"/>
    <path d="m178.53 76.954 23.577 2.9568" clip-path="url(#p873fd52cac)"/>
    <path d="m178.53 76.954" clip-path="url(#p873fd52cac)"/>
    <path d="m165.43 71.04 13.098 5.9136" clip-path="url(#p873fd52cac)"/>
    <path d="m147.09 56.256 18.338 14.784" clip-path="url(#p873fd52cac)"/>
    <path d="m126.13 47.386 20.957 8.8704" clip-path="url(#p873fd52cac)"/>
    <path d="m99.937 38.515 26.197 8.8704" clip-path="url(#p873fd52cac)"/>
    <path d="m81.599 17.818 18.338 20.698" clip-path="url(#p873fd52cac)"/>
    <path d="m47.543 26.688 34.056-8.8704" clip-path="url(#p873fd52cac)"/>
    <path d="m39.684 32.602 7.859-5.9136" clip-path="url(#p873fd52cac)"/>
    <path d="m39.684 32.602 2.6197-5.9136" clip-path="url(#p873fd52cac)"/>
    <path d="m42.304 26.688 13.098-14.784" clip-path="url(#p873fd52cac)"/>
    <path d="m55.402 11.904 10.479-11.827" clip-path="url(#p873fd52cac)"/>
    <path d="m65.881 0.0768 1.272-1.0768" clip-path="url(#p873fd52cac)"/>
   </g>
   <g id="LineCollection_2" fill="none" stroke="#f00" stroke-width="1.5">
    <path d="m251.88 218.88 2.6197 14.784" clip-path="url(#p873fd52cac)"/>
    <path d="m254.5 204.1 5.2394-11.827" clip-path="url(#p873fd52cac)"/>
    <path d="m272.84 91.738h2.6197" clip-path="url(#p873fd52cac)"/>
    <path d="m178.53 76.954 23.577 2.9568" clip-path="url(#p873fd52cac)"/>
    <path d="m165.43 71.04 13.098 5.9136" clip-path="url(#p873fd52cac)"/>
   </g>
   <g id="LineCollection_3" fill="none" stroke="#1f77b4" stroke-width="1.5">
    <path d="m164.84 80.56 0.058209-0.062063 0.29715-0.048403 0.63409-0.027646 0.4231 0.0089 0.31986 0.082228 0.49821-0.13956 0.072251-0.06567 0.53365-0.061768 0.53352 0.11295 0.26676 0.17206 0.16981 0.24119-0.371 0.65724-0.15244 0.46215-0.72552 0.13516-0.46717-0.20612-0.51802-0.43991-0.57659-0.40523-0.51828-0.25748-0.47762-0.15801" clip-path="url(#p873fd52cac)"/>
    <path d="m168.12 82.122 0.057633-0.075162 0.74273 0.52646 0.73437 0.30751 0.39285 0.0733 0.16494-0.21602 0.77097-0.17528 0.50982-0.20494 0.9358-0.59118 0.17683-0.22818 0.14432-0.10908 0.64046-0.26038 0.88508-0.4473 1.277-0.42744 0.39798-0.36348 0.54888-0.23882 1.241-0.93089 0.33642-0.30115 0.53096-0.61691 0.068138 0.1578-0.021324 0.081283-0.49271 0.60478-1.3457 1.232-0.31009 0.22274-0.58091 0.31419-1.433 0.49807-0.80694 0.36877-1.9162 1.1713-2.0549 0.70124-0.38808 0.05887-0.094073-0.15245-0.38847-0.39024-0.67423-0.50881-0.049565-0.080573" clip-path="url(#p873fd52cac)"/>
    <path d="m227.32 127.82 0.05276-0.4468 0.24363 0.32667 0.080214 0.45934 0.12509 0.31475 0.12713 0.60475-0.045399 0.72776-0.16347 0.123-0.00909 0.17424 0.0706 0.1838 0.22149 0.44382v0.22865l-0.11954-0.0055-0.1681 0.27433-0.21523-0.11904 0.030807-1.5176 0.1467-0.32229-9.96e-4 -0.41582-0.084327-0.257-0.14521-0.27921-0.11791-0.30455-0.029157-0.19329" clip-path="url(#p873fd52cac)"/>
    <path d="m104.7 62.748 2.5795-0.49358 3.2598-0.77986 0.7229 0.23722 2.9454-0.36274 7.9839-1.5736 2.6123-0.3227 3.09-0.13063 4.2466 0.36661 2.7945 0.27723 1.7152 0.33929 1.9946 0.57551 3.4736 1.1832 2.3584 0.9695 3.1907 1.631 2.6913 1.7542 2.0589 1.7563 2.7706 1.4197 1.3065 1.5696 0.83903 0.71924 0.56019 0.30275 1.6192 0.33527 0.54762 0.3371 1.0825 1.1701 0.82368 1.5674 0.19074 0.027764 0.3169 0.37531-0.04904 0.050206 0.088099 0.47906 0.23129 0.18566 0.033008 0.32457-0.26351 2.9438-0.16428 0.18542-0.94895 0.19281-0.63069-0.73494-0.73212-2.7294 0.023473-0.83444 0.32856-1.2053-0.34962 0.15071-0.28117 0.68565-0.037278 0.40724 0.10447 0.85718 0.42208 1.7554 0.74535 1.7578 0.64578 0.77631-0.077097-0.36656 0.1072-0.14234 0.63931-0.2806 0.74595-0.076492 0.81265 0.082347 0.84534-0.36478 1.3142-0.19397 1.4621-0.46306 0.51846-0.08557 0.77435-0.008249 0.91456 0.23515 1.1513-0.11493 0.6398-0.35833 0.12664-0.45363 0.45614-0.077172 0.21547-0.15313 0.60934-0.97846 0.55322-0.055381 0.44223 0.36333-0.64627 1.0989 0.3602 0.39376 0.16384-0.33932 0.35381-0.25346 2.9517-1.3627 0.66194-0.54287 1.2153-0.72226 0.37215 0.071466 0.3513-0.26709 0.219-0.27087 2.9363-1.8624 0.6255-0.19166 0.45671 0.077379 1.1227-0.4473 0.21096 0.45239 0.51917 0.31901 0.49449 0.052247 0.68167 0.24 0.93124-0.19003 0.25262-0.71501-0.1488-0.65895-1.1712-0.4544-0.88238-0.12197-0.46871 0.041188 0.32413-0.5691 2.1295 0.48057-0.14812-0.50331-0.37362-0.10692-0.10269-1.0896 0.1823-0.99455 1.1416-0.33317 0.45865 0.35603 0.54143-0.083145 0.16703-0.23155 0.037435-0.87421 0.33857-0.18128 0.23441 0.078384 0.047756 0.24006 0.22671 0.22061 1.0082-0.070283-0.23897-0.55662 0.054044-0.22356 0.090038 0.060969 0.36916 0.53861 0.2161 0.060999 0.12606-0.1118-0.18909 0.39633-0.059624 0.15094 0.14 0.12025 0.57295 0.013985 0.84849-0.52888 0.28945 0.15148 0.50075-0.28048 0.30566 0.079184 0.52569-0.26883 1.0142-0.055972 0.61714 0.20881 0.23863 0.36336 1.5647 1.1752 0.009667 0.151 2.2551 1.2123 0.43846 0.44 1.0468 0.18347 0.82467 0.56294 2.0441 1.1659 0.50476 0.56147 0.57557 0.39772 0.50853 1.2932 0.60449 0.42436 0.25133 0.47989 0.074766 0.72285-0.079743 0.078739 0.035968 0.25322 0.15092 0.22773 0.33891 0.20532 0.4937 0.86371 0.24958 0.27093 1.1505 0.43382 0.26618 0.29113 0.011107 0.23844 0.91555 0.45014 0.31266-0.063128 0.61539 0.26327 0.3481 1.6419-0.14639 0.51407-0.004925 0.51008 0.13109 1.8059 0.42646 0.12558 0.12362 0.27903 0.23488 0.10813h0.35538l0.17434 0.31174 0.49609 0.40697 0.51304-0.002129 0.44008 1.116 0.5954 0.16756 0.21099-0.10497 0.61447 0.077705 0.5877 0.3751 0.40943 0.77084 0.045687 0.60812 0.29133 0.30863 0.3684 0.55372-0.031907 0.90094 0.18757 0.70564 0.23174 0.1107 0.37422-0.076374 0.54694 0.306 0.4739 0.29438 0.4837 0.070579 0.37406 0.54781-0.34331 0.93302 0.23192 0.57587 0.46693 0.61593 0.005632 0.15239-0.19129 0.52702 0.29817 0.20319 0.09588 0.45606 0.59608-0.094144 0.29817-0.21588 0.022503-0.29843 0.69576-0.86478 0.11765 0.016854 0.32709 0.27155 1.1074 0.089266 0.25652-0.055529 0.92742 0.23737 0.76054-0.015789 0.81488 0.11384 0.58516 0.34893-0.025332 0.49603 0.17253 0.56774-0.053677 0.16392-0.21788 0.014282-0.37136 0.16907 0.17641 0.67081 0.9527 0.077912-0.072565 0.26496 0.61887 0.30831 0.16218 0.81892-0.18437 0.98784 0.59412-0.07735 0.055485 0.65032 0.70629 1.1156 0.16176 0.089414 0.36031 0.80857 0.005423 0.30836-1.0895 1.3313 0.36015 1.1789 0.40518 0.38619 0.072015 1.189-0.36916 1.0671 1.1435 0.74698 0.018024 0.36584-0.1981 0.79272 0.09905 0.85366 0.3973 0.11464-0.19401 0.50688 0.25979 0.46561-0.25062 1.7931-0.11356 0.058959-0.055171 0.81105 0.098395 0.10168 0.034973 0.38131-0.19268 0.58214-0.20921 0.2233 0.14694 0.45056-0.24494 0.41209-0.34831 0.2322-0.23286 0.55709 0.005502 0.98367-0.25437 0.66694-0.40966 0.60396-0.034894 0.97994-0.35093 0.90895-0.33752 0.21206-0.1318 0.28607 0.038247 0.74902-0.92 0.92323-0.19215 0.4615-0.088466 0.51383 0.5724 0.29012 0.13884 0.51448-0.065492 0.62977 0.028816 1.4902-0.25964 0.69742v0.62527l-0.33603 1.5068-0.69927 1.5068-0.1658 0.003873 0.35651-1.5106-0.17062-0.056652-0.43062 1.5351-0.086449 0.70665 0.1205 0.94615 0.68355 1.1992 0.97738 0.88521 0.3432 0.47013 0.42701 0.93429 0.19648 0.14784 0.21484 0.72439 0.038509 2.6458 0.09106 0.12874 0.73506-0.36481 0.18144-0.40059-0.47759-0.37111-0.17552-0.58542 0.24607-0.81173 0.52082-0.046008 0.37978 0.16416 0.050559-0.34127 0.37723 0.11532 0.27245 0.059136 0.33272-0.10644 0.16242-0.19811 0.22529-0.65342-0.14408-0.62681 0.20426-0.76767 0.40089-0.56286 0.54754-0.52628-0.073351-0.56176-0.14408-0.22767-0.094937-0.41928-0.30328-0.47069-0.57895-0.52037-0.055013-0.37256 0.16129-0.19802-1.4947-0.17451-0.17028-0.25428-0.48205-0.10053-0.26459-0.2395-0.10479-0.34592 0.1991-0.30455 0.42931-0.056445 0.40188-0.34054 0.16208-0.64727 0.9724-0.16886 0.31166 0.028149 0.54856 0.45029 0.85525 0.40866 0.57856 0.071732 0.52918 1.0053 0.062872 0.8604-0.30126 0.39322 0.25149 0.5884-0.14146 0.17149-0.37461 0.06502-0.02693 0.42105 1.12 0.60458 0.94099 0.20769 0.074216-0.046363 0.021376-0.73278-0.22301-0.17457-0.20748-0.30514 0.004558-0.25151 0.16032-0.17818 0.008986-0.32522-0.1571-0.17457-0.062872-0.72734 0.30792-0.23891" clip-path="url(#p873fd52cac)"/>
    <path d="m242.24 169.12 0.095775-0.46437 0.22461-0.1461 0.01619-0.13965 0.22592 0.051005 0.10544 0.357-0.090379 0.16999-0.015063 0.15302 0.23826 0.63456 0.50031 1.0517 0.10492 0.69375 0.4669 1.275 0.24098 0.952 0.25605 0.74801 0.30124 0.374 0.4368 0.357 0.4669 0.017002 0.30124 0.10198 0.82842 0.54402 0.30124-0.323 0.37653-0.11901 0.6326 0.39101 0.59718 0.060585 0.049617 0.01774-0.00524 0.06505-1.2889 0.78648-0.31177 0.10053h-0.20696l-0.39819-0.085747-0.74808-0.33471-0.57751-0.56708-0.63399-0.36073-0.10741-0.11532-0.096928-0.13894-0.14995-0.38332-0.39193-1.9837-0.10796-0.30236-0.43508-0.70567-0.43856-1.361-0.25639-0.52938-0.3759-0.5633-0.13096-0.27803" clip-path="url(#p873fd52cac)"/>
    <path d="m236.73 132.31 0.44556-0.3099-0.022503 0.87906 0.27043 0.027351 0.50494 0.18347 0.48205-0.002957 0.29602 0.55585 0.24185 1.333-0.24819 0.73471-0.20905 0.053311-0.19815 0.22711-0.01742 0.27853-0.39072 0.5819-0.017133 0.28776-0.60012 0.34843-0.64868 0.29337 0.15739 0.3761-0.16116 0.29695-0.32594 0.027291-0.50754 0.39547-1.1598 1.9784-0.31617 0.88101-0.36733 0.38027-0.31067 0.058426-0.43264 0.3314 0.025777 0.34317-0.89056 1.1144-0.12328 0.30825-0.62613 0.10352-0.32222 0.34296-0.091689 0.34299-0.52918-0.15671 0.065492-0.64455-0.9857-0.45298 0.071543 0.22909 0.7465 0.90688 0.17552 0.37847 0.41915 1.4901 0.43749 0.38143 0.84616 1.023 0.49664 0.81353 1.2533 1.5636 0.1774 0.31744-0.013256 0.56581 0.2812 0.31419 0.50562 0.42874 1.6425 3.344 0.3065 0.90179 1.2077 2.661 0.48726 1.0585 1.2828 2.2635 1.6389 2.3832 0.51312 1.2747 0.12619 0.82311 0.12614 1.1661 0.22878-1.1379 0.4669-0.83302 0.30124 0.357 1.1297-0.017001 0.1506-0.18699 0.57235-0.13601 0.10544-0.18699-0.24098-1.836-0.4368-1.343-0.060253-0.578 0.34643-0.255 0.64766-0.017001 0.52716-0.83302 0.24098-0.10198 0.82842-0.017001 0.3464 0.23799 0.030126 0.56099-0.1506 0.10201h-0.40668l-0.18073 0.13601-0.075315 0.49299 0.060252 0.52702 0.82839 0.35697 0.060253 0.52702-0.030127 1.088 0.075316 0.578-0.16569 0.39101v0.44201l-0.13554 0.935-0.48199 1.19-0.045163 0.51002-0.16569 0.578-0.18073 0.085008-0.16569-0.13601-0.5121-0.952-0.67779-0.13601-0.57235 0.068006-0.16567 0.15302-0.04519 0.44201 0.82839 0.81599 0.3163 0.49302 0.67779 2.856 0.16567 1.683h0.28617l0.60247-0.255 0.1205-0.612 0.61754-0.18702 0.90371 0.42501-0.1205 0.42501 0.12362 0.20038 0.31302-0.023772 0.72049 0.24692 0.13876 0.54843 0.19912 0.16555 0.86449 0.46422 0.54754 0.60612 0.020958 0.15671 0.86258 0.95242 0.93892 2.4876 0.42784 2.5828 0.057633 1.0053 0.15134 0.61859 0.18783 1.8929 1.1579 2.5976 0.25225 0.18039-0.049512 0.99969 0.10858 0.31993 0.35704 0.53628 0.12742 0.71847 0.3645 0.28501 0.74325 1.4891 0.17062 0.056297 0.14812-0.33568 0.23085-0.85602 0.50476-0.3651 0.78114 0.11756 0.97903 0.14107 1.3019-0.36443 0.41661 0.14107 0.072906 0.37619h0.20832l0.3541-0.12933h0.35413l0.062479 0.19985 0.3437 0.37619 0.44786 0.15281 0.62492-0.035275 0.6041 0.38793 0.21872 0.35269 0.96862 0.68181 0.22912 0.89343-0.11456 0.12933-0.44786 0.28214 0.17706 0.36442 0.29162 0.37616-0.054856 0.77453 0.28924 0.1722 0.15985-0.046835 1.0114 0.87897 0.56072 0.90416 0.39224 0.55428 0.34774 0.72595 0.004139 0.43134 0.19564 0.36824 0.009064 0.39092 0.18726 0.44044 0.42533 0.29151 0.16101 0.42729-0.1827 0.5107 0.051032 0.35337 0.75434 0.87255 0.28172 0.34237 0.56344 1.7608-0.092003 0.15053 0.003877 0.35337 0.23873 0.17436 0.33802 0.025044 0.29411 0.7557-0.10858 0.47909-0.48959-0.069987-0.30957 0.48347 0.078617 0.19808-0.088676 0.37031-0.18319 0.20544-0.072749 0.25908-0.26129 1.9975 0.4339 0.41922 0.34588 0.7421 0.03285 0.5657 0.19535 0.22392 0.33927 0.11806 1.0677 0.99068 0.76898-0.28019 0.72083-0.033116 0.62382 0.1529 1.0937-0.3395 0.37228 0.037285 0.71496-0.20278 0.40204 0.048255 0.013386-0.66129 0.6446-0.3633 0.76141-0.080987 0.21398 0.06709 0.30642 0.42321 0.29726-0.13249 0.23593-0.23332-0.034161-0.26981 0.23905 0.077114 0.056008 0.20452-0.22676 0.52779 0.17075 0.4047 0.085375-0.11564 0.10246-0.50106 0.23902 0.019278 0.17075 0.34689-0.13659 0.28909 0.085375 0.13489 0.20488-0.057805 0.10246-0.32761 0.034134-0.32764 0.20491 0.096363 0.017054 0.17344 0.34354 0.21857 0.62149-0.17847-0.10927-0.098669 0.14206-0.074008 0.22948 0.296 0.14206 0.15955 0.16389-0.70224 0.50269-0.27135-0.041312 0.15644 0.60012-0.043317 0.027638 0.19113-0.14571 0.19734-0.42253 0.37823 0.043696 0.14802 0.17484-0.016469 0.49538-0.27957-0.043696-0.11511 0.087418-0.19734 0.074268-0.47811 0.31913-0.22903-0.67022 0.065789 0.10198-0.14802 0.24769-0.13155 0.91791-0.27956 0.14571 0.23022-0.49538 0.21381 0.1352 0.18081 0.24664-0.13522 0.65068-0.55481 0.4099 0.31188 0.32054-0.21381 0.072853-0.34532 0.56823 0.31244-0.058262-0.37823 0.29995-0.26103 0.074163-0.020935 0.19467 0.12031 0.12614 0.29568 0.33458 0.21454 0.24824-0.34944-0.19084-0.21292v-0.19737l1.3246-0.52019 0.2611 0.20325 0.36018 0.010172 0.16205-0.38619 0.47723-0.13211 0.027009-0.55895 0.36015-0.48781-0.087052-0.38066 0.23307-0.47347 0.56708-0.36827 0.45058-0.26304 0.74577-1.3503-0.093235-0.15783-0.26412-0.052601-0.13984-0.1929-0.015534-0.73651 0.15537-0.42087-0.20198-0.17537-0.29521-1.0522v-0.61377l0.38842-1.0697 0.27968-0.10523 0.31072-0.84174-0.093208-0.22797 0.10874-1.1223 0.34182-0.50854 0.29521-0.1929 0.29519-0.63131 0.40395-0.87684 0.26414-1.0697 0.29521-0.2455 1.1653-0.3858 0.48163 0.49104 0.04663 0.21044-0.15537 0.33317-0.17091 0.75407 0.41949 0.59624 0.15537-0.017534 0.023315-0.5261 0.031069-0.5787 0.40395-1.4029 0.24858-0.64884 0.015535-0.56117 0.20198-1.473 0.04663-2.2096 0.003301-2.0874 0.42994-4.7721 0.41394-3.0011 0.14932-0.44645 0.50562-5.3309 0.66018-4.9584-0.026171-4.6982 0.11113-0.008575 0.019857-0.73355-0.39036-1.8598-1.2482-4.7116-0.59894-1.5911-0.57195-1.1567-0.5488-1.5319 0.16187-0.1769-0.21206-0.69502-0.82834-1.6775-1.5869-3.8511-0.31096-1.205-0.72397-2.3587h-0.20955l-0.27734-0.71883-0.50295-2.156-0.51338-0.91129-0.030493-0.4217-0.83772-2.8806-4.2957-9.1291-0.49137-1.3848-0.61675-2.4352-0.37302-2.3578-0.069683-2.3285 0.2803-1.6025 0.21903-0.5965 0.65324-0.79606 0.94688-0.41176 0.04291-0.22912-0.28871-0.5675-0.6512-1.5402-0.364-1.6094-0.23619-0.37075-0.86203-1.0898-0.79895-1.2807-1.6356-2.3305-6.7182-11.569-2.1089-4.7278-4.3195-10.622-1.1827-3.4774-0.17512-1.0636-0.033978-1.1102-0.31035-1.2492-0.49061-0.83246-0.35916-1.2071-2.2904-10.958-0.017289-1.1671 0.19066-0.52959-0.19834 0.013454-0.001624-0.10819-0.25112-0.63317-0.099574-1.774-0.39822-0.43465-0.36932-0.027764-0.18283-0.17744 0.34116-0.55854-0.22267-0.96451-0.014016-1.3527 0.41074-2.8705-0.43759-0.34577" clip-path="url(#p873fd52cac)"/>
    <path d="m281.56 223.72 0.56315-0.42856 0.12726-0.20015 0.19587-0.1976 0.10109-0.037167 0.24358 0.0212 0.44398-0.47986 0.29516-0.14447 0.7985-0.41233 0.028344-0.156 0.24712-0.092873 0.2478-0.18303 0.45687-0.50044 0.025411-0.12865-0.033427-0.10263 0.065859-0.15396 0.64402-0.42066 0.41766-0.18468 0.077175 0.056977 0.19312 0.017623 0.31509-0.27469 0.38444-0.84006 0.022424-0.21942-0.071176-0.21978 0.56252-0.064311 0.40243-0.33625 0.2046-0.3879 0.15082-0.17921 0.17471-0.077261 0.20179-0.19202 0.53821-0.65937 0.001572-0.21375-0.17253-0.15174 0.08362-0.057509h-2.6e-5l0.35596 0.13184 0.1444-0.12463 0.29634-0.39476 0.001991-0.24683-0.15467-0.40768 0.33052 0.03418 0.036334-0.44231 0.318 0.15384 0.26414-0.1403 0.20198-0.26304 0.21751-0.59624-0.03107-0.35074-0.093234-0.28057 0.1243-0.17537 0.45056-0.2455 0.29521-0.017534 0.23305-0.1052 0.32628-0.61377 0.093208-0.6664-0.062139-0.22797-0.17091-0.1929-0.6681-0.42087 0.10877-0.12274 0.64478-0.10523 0.1243 0.12277 0.15535-0.017534 0.34182-0.22797 0.60596-0.59624 0.077674-0.31567 0.35735-0.56114 0.49719-0.50857 0.062139-0.57868 0.093208-0.31567 0.1243-0.21044 0.52826-0.22797 0.18644-0.1403 0.1243-0.17534 0.20198-0.50857 0.18644-0.71898 0.18644-0.4384 0.062139-0.36827-0.046605-0.28057 0.077674-0.36827 0.24861-0.3332 0.12428 0.017533 0.015534 1.0522-0.26412 0.42087-0.52826 1.6659-0.46612 0.4384-0.41949 1.0522-0.062139 0.4384-0.24858 0.12277-0.13232 0.1927-0.13677 0.3458-0.2096 0.11727-0.52514 1.1189-0.50822 0.7473-1.1478 1.9795-0.068636 0.18654 0.10908 0.45774-0.2283 0.43619-0.48501 0.69739-0.59422 0.64905-0.74794 0.38406-0.071098 0.18619-0.32335 0.38929-0.4882 0.18181-0.31067 0.28628-0.52422 0.64313 0.12472 0.21292-0.1483 0.24488-1.1321 0.96909-0.72921 0.94881-0.15291 0.13294-0.43497 0.074097-0.20436 0.088113-0.40919 0.28838-0.62553 0.75153-0.58875 0.43432 0.022163 0.16957-0.009012 0.040656-0.035994 0.020313-0.072042-0.060969-0.045032-0.030484h-0.035994l-0.68224 0.36942-0.40744 0.41052-0.1439 0.11558-1.297 0.80123-0.14686 0.001981" clip-path="url(#p873fd52cac)"/>
    <path d="m279.36 224.68 0.12375-0.11197 0.41873-0.20083 0.40885-0.40428 0.57033-0.47205 0.32002 0.10047-0.20169 0.48202-0.058523 0.19009-0.14555 0.17294-0.68869-0.020372-0.62477 0.28566-0.10864 0.010881-0.013832-0.032554" clip-path="url(#p873fd52cac)"/>
    <path d="m277.89 225.27 0.4279-0.23459 0.15634 0.003459 0.01446 0.033915-0.22605 0.13078-0.37265 0.066439" clip-path="url(#p873fd52cac)"/>
    <path d="m272.17 227.51 0.47196-0.13214 0.054175 0.043761 0.16116-0.021082 0.84665-0.35284 0.42559-0.40375 0.22982-0.15919 0.13358 0.00408 0.039452 0.084121 0.34113 0.20375 0.13758-0.046865 0.58922-0.27543 0.078931-0.29893 0.087261-0.15479 0.037409-0.056297h0.062322l0.049879 0.09852 0.094125 0.053577 0.44194-0.23651 0.17455-0.15479 0.42386-0.15479 0.19634-0.001804 0.55377-0.22761 0.012496 0.034595 0.096037 0.33373-0.15074 0.14243-0.69424-0.073477-2.0274 1.409-0.20593 0.088112-0.12632-0.1099-0.10036-0.19825-0.048281-5.33e-4 -0.79282 0.3515-0.16976 0.11032-0.1263 0.22046-0.074949 0.22794 0.007257 0.12345-0.77548 0.11206-0.42054-0.4814-0.033454-0.10106" clip-path="url(#p873fd52cac)"/>
    <path d="m268.07 229.12 0.090798-0.19805 0.47956-0.42578 0.26739 0.044086 0.097033-0.073181 0.075001 0.054228-0.040055 0.14181-0.96972 0.45688" clip-path="url(#p873fd52cac)"/>
    <path d="m254.12 231.78 0.080162-0.18244 0.28057-0.036635-0.01839-0.53146 0.067613-0.19849 0.094702-0.015257 0.11458 0.30621 0.44534 0.025399 0.67423-0.1544 0.23132 0.006682 0.12229 0.17223 0.10741 0.064695 0.38061-0.17729 0.012156-0.1343 0.26501-0.15224h0.15757l0.13397 0.16898 0.18909-0.0178 0.22063-0.15118 0.25214-0.30236 0.34671-0.24902 0.48852-0.15118 0.58309-0.63145 0.007859-0.23122 0.44126-0.14231 0.26003-0.017771 0.12669-0.080839 0.062584-0.30774 0.46151-0.70289 0.13903 0.012537 0.40589 0.33891 0.17795 0.043938 0.42813-0.24476 0.066723-0.37028 0.10565-0.10041 0.56161-0.18829 0.37514-0.033678 0.06434 0.14524 0.12865 0.060497 0.26804-0.090745 0.12865-0.10287 0.058969-0.10893-0.021455-0.64136-0.10185-0.11496 0.13939-0.21783 0.27339 0.357 0.058968 0.24808 0.075054 0.090744 0.096483 0.030248 0.23588-0.2662 0.03754-0.16942-0.14476-0.24204-0.091112-0.042341-0.010741-0.13312 0.14476-0.03631 0.59503 0.11496 0.2573 0.16942 0.069684 0.14521 0.021455 0.21177 0.10185 0.15127 0.65937 0.5143 0.38061 0.03631 0.69681 0.18693 0.11776 0.28013 0.022372 0.32693 0.11183 0.46392 0.30482 0.24373-0.008933 0.072383-0.12428 0.07868-0.77852 0.35887-1.6311 0.546-0.17945-0.073979-0.035969-0.49467-0.28471-0.20322-0.4749 0.036014-0.42722 0.17081-0.57078-0.053606-0.27611-0.092726-0.023027-0.066469 0.10256-0.074629 0.039426-0.097693-0.10725-0.19397-0.47353-0.15443-0.11558 0.12132-0.067928 0.18533-0.082651 0.30748-0.007545 0.37534-0.055982 0.18867-0.19464 0.14284-0.72971 0.15993-1.4814 0.84124-1.6035 0.39328-0.27467 0.25972-0.27727 0.16617-0.16496-0.033914-1.0724 0.10239-0.87712 0.12773-0.52823 0.1633-0.63333 0.055558-0.066986-0.052247-0.040762-0.50597" clip-path="url(#p873fd52cac)"/>
    <path d="m283.19 221.88 0.026983-0.16259 0.099155-0.14228 0.035968-0.010142 0.035968 0.020343 0.099129 0.27439-0.063135 0.060969-0.10793 0.020343-0.090143-0.020343-0.035995-0.040686" clip-path="url(#p873fd52cac)"/>
    <path d="m266.49 226.62 0.0126-0.056298 0.11212-0.042193 0.037382-0.084417 0.14969-0.15482 0.062374-0.070313 0.024782-0.16886-0.013203-0.1332 0.076364-0.14471 0.18246 0.29331 0.31538 0.026789 0.1871 0.25328v0.084417l-0.074765 0.45032 0.012391 0.2392 0.090955 0.14521-0.1533 0.079923-0.049774-0.056298-0.12472-0.26732-0.07474-0.070372-0.11233-0.028149-0.13711-0.014045-0.16208 0.056298-0.11212-0.15482-0.16208-0.11257-0.087366-0.070371" clip-path="url(#p873fd52cac)"/>
    <path d="m244.9 232.09v-0.14071l0.046577-0.19343 0.10911-0.10559h0.077961l0.046762 0.087994-0.046762 0.087906-0.031174 0.12312 0.046761 0.052779 0.24945 0.017593 0.43628 0.017622 0.23365-0.052808 0.20266-0.21109 0.093549-0.26384-0.015588-0.21103-0.12472-0.087965-0.17148-0.052749-0.20245-0.052779-0.24944 0.017593-0.10914 0.035186-0.062348-0.087965v-0.14071l0.12472-0.1759 0.17148-0.035127h0.20266l0.20248 0.070313 0.23383 0.070401 0.1401 0.1055 0.077961 0.1759 0.062349 0.29902-0.031175 0.28143-0.14031 0.26381-0.23365 0.19349-0.40513 0.035156-0.73249 0.035186-0.14031-0.070342-0.062164-0.087965" clip-path="url(#p873fd52cac)"/>
    <path d="m226.93 123.96 0.22066-0.58938 0.15768-0.15757-0.022581 0.70629-0.1351 0.4421 0.094518 0.87912-0.004401 0.11177-0.18008-0.0356-0.076547-0.24391-0.054148-1.1128" clip-path="url(#p873fd52cac)"/>
    <path d="m227.18 126.89 0.014199-0.41918 0.22044-0.14364 0.040579 0.035571-0.1467 0.14837-0.014408 0.28211 0.20169 0.20978-0.04498 0.020313-0.27082-0.13332" clip-path="url(#p873fd52cac)"/>
    <path d="m237.79 134.16 0.05855-0.56401h0.28361l0.004401 0.005086 0.004611 0.46747-0.14411 0.14734-0.20706-0.055883" clip-path="url(#p873fd52cac)"/>
    <path d="m237.69 135.39 0.081551-0.47513 0.19268 0.029421-0.026171 0.48252-0.24806-0.036812" clip-path="url(#p873fd52cac)"/>
    <path d="m229.23 142.32 0.06316-0.39127 0.089934 0.060999-0.031593 0.52338 0.10814 0.21339-0.18906-0.14228-0.040579-0.26422" clip-path="url(#p873fd52cac)"/>
    <path d="m179.19 77.361 0.80146-0.10162 1.0309-0.60975 0.80584-0.59961 0.081157 0.23882-0.23865 0.46241-1.175 0.54373-1.1976 0.33024-0.10814-0.26422" clip-path="url(#p873fd52cac)"/>
   </g>
   <g id="patch_3">
    <path d="m92.078 307.58v-266.11" fill="none" stroke="#000" stroke-linecap="square" stroke-width=".8"/>
   </g>
   <g id="patch_4">
    <path d="m380.24 307.58v-266.11" fill="none" stroke="#000" stroke-linecap="square" stroke-width=".8"/>
   </g>
   <g id="patch_5">
    <path d="m92.078 307.58h288.16" fill="none" stroke="#000" stroke-linecap="square" stroke-width=".8"/>
   </g>
   <g id="patch_6">
    <path d="m92.078 41.472h288.16" fill="none" stroke="#000" stroke-linecap="square" stroke-width=".8"/>
   </g>
   <g id="text_19">
    <!-- Path of storm AL062008 -->
    <g transform="translate(163.77 35.472) scale(.12 -.12)">
     <defs>
      <path id="DejaVuSans-50" transform="scale(.015625)" d="m1259 4147v-1753h794q441 0 681 228 241 228 241 650 0 419-241 647-240 228-681 228h-794zm-631 519h1425q785 0 1186-355 402-355 402-1039 0-691-402-1044-401-353-1186-353h-794v-1875h-631v4666z"/>
      <path id="DejaVuSans-68" transform="scale(.015625)" d="m3513 2113v-2113h-575v2094q0 497-194 743-194 247-581 247-466 0-735-297-269-296-269-809v-1978h-578v4863h578v-1907q207 316 486 472 280 156 646 156 603 0 912-373 310-373 310-1098z"/>
      <path id="DejaVuSans-66" transform="scale(.015625)" d="m2375 4863v-479h-550q-309 0-430-125-120-125-120-450v-309h947v-447h-947v-3053h-578v3053h-550v447h550v244q0 584 272 851 272 268 862 268h544z"/>
      <path id="DejaVuSans-73" transform="scale(.015625)" d="m2834 3397v-544q-243 125-506 187-262 63-544 63-428 0-642-131t-214-394q0-200 153-314t616-217l197-44q612-131 870-370t258-667q0-488-386-773-386-284-1061-284-281 0-586 55t-642 164v594q319-166 628-249 309-82 613-82 406 0 624 139 219 139 219 392 0 234-158 359-157 125-692 241l-200 47q-534 112-772 345-237 233-237 639 0 494 350 762 350 269 994 269 318 0 599-47 282-46 519-140z"/>
      <path id="DejaVuSans-72" transform="scale(.015625)" d="m2631 2963q-97 56-211 82-114 27-251 27-488 0-749-317t-261-911v-1844h-578v3500h578v-544q182 319 472 473 291 155 707 155 59 0 131-8 72-7 159-23l3-590z"/>
      <path id="DejaVuSans-6d" transform="scale(.015625)" d="m3328 2828q216 388 516 572t706 184q547 0 844-383 297-382 297-1088v-2113h-578v2094q0 503-179 746-178 244-543 244-447 0-707-297-259-296-259-809v-1978h-578v2094q0 506-178 748t-550 242q-441 0-701-298-259-298-259-808v-1978h-578v3500h578v-544q197 322 472 475t653 153q382 0 649-194 267-193 395-562z"/>
      <path id="DejaVuSans-41" transform="scale(.015625)" d="m2188 4044-857-2322h1716l-859 2322zm-357 622h716l1778-4666h-656l-425 1197h-2103l-425-1197h-666l1781 4666z"/>
     </defs>
     <use xlink:href="#DejaVuSans-50"/>
     <use x="55.802734" xlink:href="#DejaVuSans-61"/>
     <use x="117.082031" xlink:href="#DejaVuSans-74"/>
     <use x="156.291016" xlink:href="#DejaVuSans-68"/>
     <use x="219.669922" xlink:href="#DejaVuSans-20"/>
     <use x="251.457031" xlink:href="#DejaVuSans-6f"/>
     <use x="312.638672" xlink:href="#DejaVuSans-66"/>
     <use x="347.84375" xlink:href="#DejaVuSans-20"/>
     <use x="379.630859" xlink:href="#DejaVuSans-73"/>
     <use x="431.730469" xlink:href="#DejaVuSans-74"/>
     <use x="470.939453" xlink:href="#DejaVuSans-6f"/>
     <use x="532.121094" xlink:href="#DejaVuSans-72"/>
     <use x="571.484375" xlink:href="#DejaVuSans-6d"/>
     <use x="668.896484" xlink:href="#DejaVuSans-20"/>
     <use x="700.683594" xlink:href="#DejaVuSans-41"/>
     <use x="769.091797" xlink:href="#DejaVuSans-4c"/>
     <use x="824.804688" xlink:href="#DejaVuSans-30"/>
     <use x="888.427734" xlink:href="#DejaVuSans-36"/>
     <use x="952.050781" xlink:href="#DejaVuSans-32"/>
     <use x="1015.673828" xlink:href="#DejaVuSans-30"/>
     <use x="1079.296875" xlink:href="#DejaVuSans-30"/>
     <use x="1142.919922" xlink:href="#DejaVuSans-38"/>
    </g>
   </g>
  </g>
 </g>
 <defs>
  <clipPath id="p873fd52cac">
   <rect x="92.078" y="41.472" width="288.16" height="266.11"/>
  </clipPath>
 </defs>
</svg>
